<svg width="215" height="165" viewBox="0 0 215 165" fill="none" xmlns="http://www.w3.org/2000/svg">
<path d="M50.4859 159.233C61.5709 159.439 70.9967 155.996 78.5267 148.812C86.4028 141.298 90.5001 132.117 90.6994 121.422C90.8925 111.059 88.3275 102.511 82.6353 96.1704C77.8638 90.4487 72.8516 85.495 67.5939 81.324C63.4186 77.7388 61.6599 73.9599 61.7352 69.9141C61.864 63.0061 65.1125 56.0671 72.064 49.0668C79.3713 41.7081 85.6512 35.5237 90.9062 30.5104L93.0979 28.419L90.9856 26.2484L71.0189 5.72533L69.2517 3.90888L67.1649 5.34876C50.7167 16.6992 36.064 30.8818 23.2037 47.8719L23.2037 47.8729C10.1516 64.731 3.4069 83.7935 3.0122 104.971C2.74994 119.043 6.71336 131.623 14.9118 142.593L14.9462 142.639C23.3729 153.477 35.3555 158.951 50.4859 159.233ZM167.15 161.407C178.235 161.614 187.661 158.17 195.191 150.986C203.067 143.472 207.164 134.292 207.364 123.596C207.557 113.233 204.992 104.685 199.3 98.3447C194.528 92.6226 189.515 87.6685 184.257 83.4974C180.083 79.9124 178.323 76.1339 178.399 72.0884C178.527 65.1804 181.777 58.2414 188.728 51.2411C196.036 43.8825 202.315 37.698 207.57 32.6847L209.762 30.5933L207.649 28.4227L187.683 7.89966L185.916 6.08321L183.829 7.52309C167.381 18.8735 152.728 33.0561 139.868 50.0462L139.868 50.0472C126.816 66.9053 120.071 85.9678 119.677 107.146C119.414 121.218 123.378 133.797 131.576 144.768L131.61 144.813C140.037 155.651 152.02 161.125 167.15 161.407Z" stroke="#7A9B4F" stroke-width="6"/>
</svg>
